<?xml version="1.0" encoding="utf-8"?>
<!-- Generator: Adobe Illustrator 18.1.1, SVG Export Plug-In . SVG Version: 6.00 Build 0)  -->
<svg version="1.1" id="Capa_1" xmlns="http://www.w3.org/2000/svg" xmlns:xlink="http://www.w3.org/1999/xlink" x="0px" y="0px"
	 viewBox="-107 235.1 330.8 324.1" enable-background="new -107 235.1 330.8 324.1" xml:space="preserve">
<path fill="#00A9DD" d="M132.8,404.3l-0.7-0.7l0.1-9.3l0.7-0.7c19.8-18.3,19.4-19.3,18.4-21.7l-7.7-18.7c-0.3-0.8-1.1-1.6-1.9-1.9
	c-0.7-0.3-3-1.3-26.5-0.9l-0.9,0l-6.7-6.8l0-0.9c0.6-26.9-0.3-27.3-2.6-28.3l-18.8-8.1c-2.3-1-3.3-1.4-21.8,17.8l-0.7,0.7l-9.5-0.2
	l-0.6-0.7c-10.9-11.4-17.4-17.6-19.5-18.4c-0.8-0.4-1.9-0.4-2.7-0.1l-19,7.3c-2.4,0.9-3.4,1.3-2.5,28l0,1l-6.7,6.4l-0.9,0
	c-27.3-1.1-27.7-0.2-28.7,2.2l-8,18.4c-1,2.4-1.4,3.3,18.4,21.9l0.7,0.7l-0.1,9.3l-0.7,0.6c-19.8,18.3-19.4,19.2-18.4,21.6l7.7,18.8
	c0.3,0.8,1.1,1.6,1.9,1.9c0.7,0.3,3,1.3,26.5,0.9l0.9,0l6.7,6.8l0,0.9c-0.6,26.9,0.3,27.3,2.6,28.3l18.8,8.1
	c2.4,1,3.3,1.4,21.8-17.8l0.7-0.7l9.5,0.2l0.6,0.6c10.9,11.4,17.4,17.6,19.4,18.4c0.8,0.4,1.9,0.4,2.7,0.1l19-7.3
	c2.4-1,3.4-1.3,2.4-28l0-1l6.7-6.4l0.9,0c27.4,1,27.8,0.2,28.8-2.2l8-18.4C152.2,423.8,152.7,422.8,132.8,404.3z M45.5,427.3
	c-16.8-7.3-24.7-26.6-17.6-43.1c7.1-16.5,26.6-24,43.4-16.7c16.8,7.3,24.7,26.6,17.6,43C81.7,427.1,62.3,434.6,45.5,427.3z"/>
<circle fill="#00A9DD" cx="58.4" cy="261.1" r="26"/>
<circle fill="#00A9DD" cx="157.4" cy="301.1" r="26"/>
<circle fill="#00A9DD" cx="197.8" cy="397.1" r="26"/>
<circle fill="#00A9DD" cx="157.4" cy="494.1" r="26"/>
<circle fill="#00A9DD" cx="58.4" cy="533.1" r="26"/>
<circle fill="#00A9DD" cx="-40.6" cy="494.1" r="26"/>
<circle fill="#00A9DD" cx="-81" cy="397.1" r="26"/>
<circle fill="#00A9DD" cx="-40.6" cy="301.1" r="26"/>
<line fill="none" stroke="#00A9DD" stroke-width="12" stroke-miterlimit="10" x1="58.4" y1="261.1" x2="157.4" y2="301.1"/>
<line fill="none" stroke="#00A9DD" stroke-width="12" stroke-miterlimit="10" x1="157.4" y1="301.1" x2="197.8" y2="397.1"/>
<line fill="none" stroke="#00A9DD" stroke-width="12" stroke-miterlimit="10" x1="197.8" y1="397.1" x2="157.4" y2="494.1"/>
<line fill="none" stroke="#00A9DD" stroke-width="12" stroke-miterlimit="10" x1="157.4" y1="494.1" x2="58.4" y2="533.1"/>
<line fill="none" stroke="#00A9DD" stroke-width="12" stroke-miterlimit="10" x1="58.4" y1="533.1" x2="-40.6" y2="494.1"/>
<line fill="none" stroke="#00A9DD" stroke-width="12" stroke-miterlimit="10" x1="-40.6" y1="494.1" x2="-81" y2="397.1"/>
<line fill="none" stroke="#00A9DD" stroke-width="12" stroke-miterlimit="10" x1="-81" y1="397.1" x2="-40.6" y2="301.1"/>
<path fill="none" stroke="#00A9DD" stroke-width="12" stroke-miterlimit="10" d="M16,316.2"/>
<line fill="none" stroke="#00A9DD" stroke-width="12" stroke-miterlimit="10" x1="-40.6" y1="301.1" x2="58.4" y2="261.1"/>
<circle fill="#00A9DD" cx="58.4" cy="397.4" r="26"/>
<line fill="none" stroke="#00A9DD" stroke-width="12" stroke-miterlimit="10" x1="58.4" y1="261.1" x2="58.4" y2="533.1"/>
<line fill="none" stroke="#00A9DD" stroke-width="12" stroke-miterlimit="10" x1="-81" y1="397.1" x2="197.8" y2="397.1"/>
<line fill="none" stroke="#00A9DD" stroke-width="12" stroke-miterlimit="10" x1="-40.6" y1="301.1" x2="157.4" y2="494.1"/>
<line fill="none" stroke="#00A9DD" stroke-width="12" stroke-miterlimit="10" x1="157.4" y1="301.1" x2="-40.6" y2="494.1"/>
</svg>
